<svg width="132" height="28" viewBox="0 0 132 28" fill="none" xmlns="http://www.w3.org/2000/svg">
<path d="M2.968 27C2.296 27 1.744 26.796 1.312 26.388C0.904 25.956 0.7 25.428 0.7 24.804V3.996C0.7 3.372 0.904 2.856 1.312 2.448C1.744 2.016 2.272 1.8 2.896 1.8H14.596C15.22 1.8 15.736 2.004 16.144 2.412C16.576 2.796 16.792 3.3 16.792 3.924C16.792 4.452 16.576 4.92 16.144 5.328C15.736 5.736 15.22 5.94 14.596 5.94H4.876L5.2 5.508V12.744L4.948 12.276H12.976C13.6 12.276 14.116 12.48 14.524 12.888C14.956 13.272 15.172 13.776 15.172 14.4C15.172 14.928 14.956 15.396 14.524 15.804C14.116 16.212 13.6 16.416 12.976 16.416H4.876L5.2 16.092V24.804C5.2 25.428 4.972 25.956 4.516 26.388C4.084 26.796 3.568 27 2.968 27ZM38.7115 17.388C38.7115 19.356 38.2675 21.096 37.3795 22.608C36.5155 24.096 35.3395 25.26 33.8515 26.1C32.3875 26.94 30.7435 27.36 28.9195 27.36C27.0955 27.36 25.4395 26.94 23.9515 26.1C22.4875 25.26 21.3115 24.096 20.4235 22.608C19.5595 21.096 19.1275 19.356 19.1275 17.388C19.1275 15.42 19.5595 13.692 20.4235 12.204C21.3115 10.692 22.4875 9.516 23.9515 8.676C25.4395 7.812 27.0955 7.38 28.9195 7.38C30.7435 7.38 32.3875 7.812 33.8515 8.676C35.3395 9.516 36.5155 10.692 37.3795 12.204C38.2675 13.692 38.7115 15.42 38.7115 17.388ZM34.3915 17.388C34.3915 16.164 34.1395 15.108 33.6355 14.22C33.1555 13.308 32.4955 12.6 31.6555 12.096C30.8395 11.592 29.9275 11.34 28.9195 11.34C27.9115 11.34 26.9875 11.592 26.1475 12.096C25.3315 12.6 24.6715 13.308 24.1675 14.22C23.6875 15.108 23.4475 16.164 23.4475 17.388C23.4475 18.588 23.6875 19.644 24.1675 20.556C24.6715 21.444 25.3315 22.14 26.1475 22.644C26.9875 23.148 27.9115 23.4 28.9195 23.4C29.9275 23.4 30.8395 23.148 31.6555 22.644C32.4955 22.14 33.1555 21.444 33.6355 20.556C34.1395 19.644 34.3915 18.588 34.3915 17.388ZM61.1763 17.388C61.1763 19.356 60.7323 21.096 59.8443 22.608C58.9803 24.096 57.8043 25.26 56.3163 26.1C54.8523 26.94 53.2083 27.36 51.3843 27.36C49.5603 27.36 47.9043 26.94 46.4163 26.1C44.9523 25.26 43.7763 24.096 42.8883 22.608C42.0243 21.096 41.5923 19.356 41.5923 17.388C41.5923 15.42 42.0243 13.692 42.8883 12.204C43.7763 10.692 44.9523 9.516 46.4163 8.676C47.9043 7.812 49.5603 7.38 51.3843 7.38C53.2083 7.38 54.8523 7.812 56.3163 8.676C57.8043 9.516 58.9803 10.692 59.8443 12.204C60.7323 13.692 61.1763 15.42 61.1763 17.388ZM56.8563 17.388C56.8563 16.164 56.6043 15.108 56.1003 14.22C55.6203 13.308 54.9603 12.6 54.1203 12.096C53.3043 11.592 52.3923 11.34 51.3843 11.34C50.3763 11.34 49.4523 11.592 48.6123 12.096C47.7963 12.6 47.1363 13.308 46.6323 14.22C46.1523 15.108 45.9123 16.164 45.9123 17.388C45.9123 18.588 46.1523 19.644 46.6323 20.556C47.1363 21.444 47.7963 22.14 48.6123 22.644C49.4523 23.148 50.3763 23.4 51.3843 23.4C52.3923 23.4 53.3043 23.148 54.1203 22.644C54.9603 22.14 55.6203 21.444 56.1003 20.556C56.6043 19.644 56.8563 18.588 56.8563 17.388ZM80.7252 0.36C81.3492 0.36 81.8652 0.563999 82.2732 0.971998C82.6812 1.38 82.8852 1.908 82.8852 2.556V24.804C82.8852 25.428 82.6812 25.956 82.2732 26.388C81.8652 26.796 81.3492 27 80.7252 27C80.1012 27 79.5852 26.796 79.1772 26.388C78.7692 25.956 78.5652 25.428 78.5652 24.804V23.04L79.3572 23.364C79.3572 23.676 79.1892 24.06 78.8532 24.516C78.5172 24.948 78.0612 25.38 77.4852 25.812C76.9092 26.244 76.2252 26.616 75.4332 26.928C74.6652 27.216 73.8252 27.36 72.9132 27.36C71.2572 27.36 69.7572 26.94 68.4132 26.1C67.0692 25.236 66.0012 24.06 65.2092 22.572C64.4412 21.06 64.0572 19.332 64.0572 17.388C64.0572 15.42 64.4412 13.692 65.2092 12.204C66.0012 10.692 67.0572 9.516 68.3772 8.676C69.6972 7.812 71.1612 7.38 72.7692 7.38C73.8012 7.38 74.7492 7.536 75.6132 7.848C76.4772 8.16 77.2212 8.556 77.8452 9.036C78.4932 9.516 78.9852 10.008 79.3212 10.512C79.6812 10.992 79.8612 11.4 79.8612 11.736L78.5652 12.204V2.556C78.5652 1.932 78.7692 1.416 79.1772 1.008C79.5852 0.575999 80.1012 0.36 80.7252 0.36ZM73.4532 23.4C74.5092 23.4 75.4332 23.136 76.2252 22.608C77.0172 22.08 77.6292 21.36 78.0612 20.448C78.5172 19.536 78.7452 18.516 78.7452 17.388C78.7452 16.236 78.5172 15.204 78.0612 14.292C77.6292 13.38 77.0172 12.66 76.2252 12.132C75.4332 11.604 74.5092 11.34 73.4532 11.34C72.4212 11.34 71.5092 11.604 70.7172 12.132C69.9252 12.66 69.3012 13.38 68.8452 14.292C68.4132 15.204 68.1972 16.236 68.1972 17.388C68.1972 18.516 68.4132 19.536 68.8452 20.448C69.3012 21.36 69.9252 22.08 70.7172 22.608C71.5092 23.136 72.4212 23.4 73.4532 23.4Z" fill="black"/>
<path d="M98.7227 1.8C100.451 1.8 101.987 2.124 103.331 2.772C104.675 3.42 105.803 4.332 106.715 5.508C107.651 6.66 108.347 8.004 108.803 9.54C109.283 11.052 109.523 12.672 109.523 14.4C109.523 16.728 109.103 18.852 108.263 20.772C107.423 22.668 106.199 24.18 104.591 25.308C103.007 26.436 101.051 27 98.7227 27H90.1187C89.4947 27 88.9667 26.796 88.5347 26.388C88.1267 25.956 87.9227 25.428 87.9227 24.804V3.996C87.9227 3.372 88.1267 2.856 88.5347 2.448C88.9667 2.016 89.4947 1.8 90.1187 1.8H98.7227ZM98.3627 22.86C99.8747 22.86 101.111 22.476 102.071 21.708C103.031 20.916 103.727 19.884 104.159 18.612C104.615 17.316 104.843 15.912 104.843 14.4C104.843 13.272 104.711 12.204 104.447 11.196C104.207 10.164 103.823 9.264 103.295 8.496C102.767 7.704 102.095 7.08 101.279 6.624C100.463 6.168 99.4907 5.94 98.3627 5.94H92.0627L92.4227 5.616V23.256L92.2067 22.86H98.3627ZM129.776 1.764C130.328 1.764 130.796 1.98 131.18 2.412C131.588 2.844 131.792 3.3 131.792 3.78C131.792 4.236 131.636 4.668 131.324 5.076L124.088 14.616L121.64 11.268L128.012 2.808C128.516 2.112 129.104 1.764 129.776 1.764ZM113.72 1.692C114.416 1.692 115.004 2.004 115.484 2.628L131.324 23.688C131.612 24.072 131.756 24.516 131.756 25.02C131.756 25.692 131.516 26.22 131.036 26.604C130.556 26.988 130.076 27.18 129.596 27.18C128.9 27.18 128.312 26.868 127.832 26.244L111.992 5.184C111.68 4.8 111.524 4.368 111.524 3.888C111.524 3.264 111.752 2.748 112.208 2.34C112.688 1.908 113.192 1.692 113.72 1.692ZM113.396 27.18C112.868 27.18 112.412 26.988 112.028 26.604C111.644 26.196 111.452 25.752 111.452 25.272C111.452 24.744 111.632 24.252 111.992 23.796L119.3 13.896L121.676 17.388L115.196 26.172C114.716 26.844 114.116 27.18 113.396 27.18Z" fill="#F46A06"/>
</svg>
